# xmcd
#
# Track frame offsets:
#	150
#	17836
#	34579
#	49072
#	65451
#	77020
#	86134
#	98986
#	118096
#	134838
#	154780
#	168236
#	182425
#	202755
#	224286
#	245656
#	272372
#	277015
#	285686
#	290841
#	295141
#	304642
#	313809
#	323399
#	328423
#
# Disc length: 4422 seconds
#
# Revision: 2
# Processed by: cddbd v1.4PL0 Copyright (c) Steve Scherf et al.
# Submitted via: audiograbber 1.81.03
#
DISCID=78114419
DTITLE=Original Cast - Umoja: The Spirit of Togetherness
DYEAR=2001
DGENRE=Soundtrack
TTITLE0=Umoja
TTITLE1=Pata Pata
TTITLE2=Meadowlands
TTITLE3=Qongoothwane (aka The Click Song)
TTITLE4=Baba Sone Ngani
TTITLE5=Tula Baba
TTITLE6=Emva Kwendlu
TTITLE7=Egoli Jive
TTITLE8=Laku Tshon' Ilanga
TTITLE9=Silwelile
TTITLE10=Ama Juba
TTITLE11=Paradise Road
TTITLE12=Imfundo
TTITLE13=Kwasa Kwasa
TTITLE14=Umoja (Fernando Remix)
TTITLE15=Umoja Dance Remix II
TTITLE16=Opening Drums
TTITLE17=Venda Snake Song
TTITLE18=Africa Umoja
TTITLE19=Hobe
TTITLE20=Nomvula
TTITLE21=Unomathemba
TTITLE22=Nontente - Jikela Emaweni
TTITLE23=Hope Narration
TTITLE24=Travelling Man's Blues
EXTD=
EXTT0=
EXTT1=
EXTT2=
EXTT3=
EXTT4=
EXTT5=
EXTT6=
EXTT7=
EXTT8=
EXTT9=
EXTT10=
EXTT11=
EXTT12=
EXTT13=
EXTT14=
EXTT15=
EXTT16=
EXTT17=
EXTT18=
EXTT19=
EXTT20=
EXTT21=
EXTT22=
EXTT23=
EXTT24=
PLAYORDER=
